/* XPM */
static char *weblogic_icon_48x48[] = {
/* columns rows colors chars-per-pixel */
"48 48 256 2 ",
"   c #F70000",
".  c #F70800",
"X  c #F70808",
"o  c #F71818",
"O  c #F71821",
"+  c #F72121",
"@  c #F74242",
"#  c #F76B6B",
"$  c #F77373",
"%  c #F77B7B",
"&  c #F78484",
"*  c #F7848C",
"=  c #F78C8C",
"-  c #F7ADA5",
";  c #F7ADAD",
":  c #F7BDBD",
">  c #F7C6BD",
",  c #F7D6D6",
"<  c #F7E7E7",
"1  c #F7FFFF",
"2  c red",
"3  c #FF0008",
"4  c #FF0808",
"5  c #FF1010",
"6  c #FF1018",
"7  c #FF1818",
"8  c #FF1821",
"9  c #FF2121",
"0  c #FF2129",
"q  c #FF3131",
"w  c #FF4242",
"e  c #FF424A",
"r  c #FF4A42",
"t  c #FF4A4A",
"y  c #FF5A5A",
"u  c #FF635A",
"i  c #FF6B63",
"p  c #FF6B6B",
"a  c #FF7373",
"s  c #FF7B7B",
"d  c #FF847B",
"f  c #FF8484",
"g  c #FF848C",
"h  c #FF8C8C",
"j  c #FF949C",
"k  c #FF9C9C",
"l  c #FFA5A5",
"z  c #FFADA5",
"x  c #FFADAD",
"c  c #FFBDBD",
"v  c #FFC6C6",
"b  c #FFD6CE",
"n  c #FFD6D6",
"m  c #FFE7E7",
"M  c #FFEFE7",
"N  c #FFEFEF",
"B  c #FFF7EF",
"V  c #FFF7F7",
"C  c #FFF7FF",
"Z  c #FFFFF7",
"A  c gray100",
"S  c gray100",
"D  c gray100",
"F  c gray100",
"G  c gray100",
"H  c gray100",
"J  c gray100",
"K  c gray100",
"L  c gray100",
"P  c gray100",
"I  c gray100",
"U  c gray100",
"Y  c gray100",
"T  c gray100",
"R  c gray100",
"E  c gray100",
"W  c gray100",
"Q  c gray100",
"!  c gray100",
"~  c gray100",
"^  c gray100",
"/  c gray100",
"(  c gray100",
")  c gray100",
"_  c gray100",
"`  c gray100",
"'  c gray100",
"]  c gray100",
"[  c gray100",
"{  c gray100",
"}  c gray100",
"|  c gray100",
" . c gray100",
".. c gray100",
"X. c gray100",
"o. c gray100",
"O. c gray100",
"+. c gray100",
"@. c gray100",
"#. c gray100",
"$. c gray100",
"%. c gray100",
"&. c gray100",
"*. c gray100",
"=. c gray100",
"-. c gray100",
";. c gray100",
":. c gray100",
">. c gray100",
",. c gray100",
"<. c gray100",
"1. c gray100",
"2. c gray100",
"3. c gray100",
"4. c gray100",
"5. c gray100",
"6. c gray100",
"7. c gray100",
"8. c gray100",
"9. c gray100",
"0. c gray100",
"q. c gray100",
"w. c gray100",
"e. c gray100",
"r. c gray100",
"t. c gray100",
"y. c gray100",
"u. c gray100",
"i. c gray100",
"p. c gray100",
"a. c gray100",
"s. c gray100",
"d. c gray100",
"f. c gray100",
"g. c gray100",
"h. c gray100",
"j. c gray100",
"k. c gray100",
"l. c gray100",
"z. c gray100",
"x. c gray100",
"c. c gray100",
"v. c gray100",
"b. c gray100",
"n. c gray100",
"m. c gray100",
"M. c gray100",
"N. c gray100",
"B. c gray100",
"V. c gray100",
"C. c gray100",
"Z. c gray100",
"A. c gray100",
"S. c gray100",
"D. c gray100",
"F. c gray100",
"G. c gray100",
"H. c gray100",
"J. c gray100",
"K. c gray100",
"L. c gray100",
"P. c gray100",
"I. c gray100",
"U. c gray100",
"Y. c gray100",
"T. c gray100",
"R. c gray100",
"E. c gray100",
"W. c gray100",
"Q. c gray100",
"!. c gray100",
"~. c gray100",
"^. c gray100",
"/. c gray100",
"(. c gray100",
"). c gray100",
"_. c gray100",
"`. c gray100",
"'. c gray100",
"]. c gray100",
"[. c gray100",
"{. c gray100",
"}. c gray100",
"|. c gray100",
" X c gray100",
".X c gray100",
"XX c gray100",
"oX c gray100",
"OX c gray100",
"+X c gray100",
"@X c gray100",
"#X c gray100",
"$X c gray100",
"%X c gray100",
"&X c gray100",
"*X c gray100",
"=X c gray100",
"-X c gray100",
";X c gray100",
":X c gray100",
">X c gray100",
",X c gray100",
"<X c gray100",
"1X c gray100",
"2X c gray100",
"3X c gray100",
"4X c gray100",
"5X c gray100",
"6X c gray100",
"7X c gray100",
"8X c gray100",
"9X c gray100",
"0X c gray100",
"qX c gray100",
"wX c gray100",
"eX c gray100",
"rX c gray100",
"tX c gray100",
"yX c gray100",
"uX c gray100",
"iX c gray100",
"pX c gray100",
"aX c gray100",
"sX c gray100",
"dX c gray100",
"fX c gray100",
"gX c gray100",
"hX c gray100",
"jX c gray100",
"kX c gray100",
"lX c gray100",
"zX c gray100",
"xX c gray100",
"cX c gray100",
"vX c gray100",
"bX c gray100",
"nX c gray100",
"mX c gray100",
"MX c gray100",
"NX c gray100",
"BX c gray100",
"VX c gray100",
"CX c gray100",
"ZX c gray100",
"AX c gray100",
"SX c gray100",
"DX c gray100",
"FX c gray100",
"GX c gray100",
"HX c gray100",
"JX c gray100",
"KX c gray100",
"LX c gray100",
"PX c gray100",
"IX c gray100",
"UX c gray100",
/* pixels */
"2 2 2 2 2 2 2 2 2 2 2 2 2 2 2 2 2 2 2 2 2 2 2 2 2 2 2 2 2 2 2 2 2 2 2 2 2 2 2 2 2 2 2 2 2 2 2 2 ",
"2 2 2 2 2 2 2 2 2 2 2 2 2 2 2 2 2 2 2 2 2 2 2 2 2 2 2 2 2 2 2 2 2 2 2 2 2 2 2 2 2 2 2 2 2 2 2 2 ",
"2 2 2 2 2 2 2 2 2 2 2 2 2 2 2 2 2 2 2 2 2 2 2 2 2 2 2 2 2 2 2 2 2 2 2 2 2 2 2 2 2 2 2 2 2 2 2 2 ",
"2 2 2 2 2 2 2 2 2 2 2 2 2 2 2 2 2 2 2 2 2 2 2 2 2 2 2 2 2 2 2 2 2 2 2 2 2 2 2 2 2 2 2 2 2 2 2 2 ",
"2 2 2 2 2 2 2 2 2 2 2 2 2 2 2 2 2 2 2 2 2 2 2 2 2 2 2 2 2 2 2 2 2 2 2 2 2 2 2 2 2 2 2 2 2 2 2 2 ",
"2 2 2 2 2 2 2 2 2 2 2 2 2 2 2 2 2 2 2 2 2 2 2 2 2 2 2 2 2 2 2 2 2 2 2 2 2 2 2 2 2 2 2 2 2 2 2 2 ",
"2 2 2 2 2 2 2 2 2 2 2 2 2 2 2 2 2 2 2 2 2 2 2 2 2 2 2 2 2 2 2 2 2 2 2 2 2 2 2 2 2 2 2 2 2 2 2 2 ",
"2 2 2 2 2 2 2 2 2 2 2 2 2 2 2 2 2 2 2 2 2 2 2 2 2 2 2 2 2 2 2 2 2 2 2 2 2 2 2 2 2 2 2 2 2 2 2 2 ",
"2 2 2 2 2 2 2 2 2 2 2 2 2 2 2 2 2 2 2 2 2 2 2 2 2 2 2 2 2 2 2 2 2 2 2 2 2 2 2 2 2 2 2 2 2 2 2 2 ",
"2 2 2 2 2 2 2 2 2 2 2 2 2 2 2 2 2 2 2 2 2 2 2 2 2 2 2 2 2 2 2 2 2 2 2 2 2 2 2 2 2 2 2 2 2 2 2 2 ",
"2 2 2 2 2 2 2 2 2 2 2 2 2 2 2 2 2 2 2 2 2 2 2 2 2 2 2 2 2 2 2 2 2 2 2 2 2 2 2 2 2 2 2 2 2 2 2 2 ",
"2 2 2 2 2 2 2 2 2 2 2 2 2 2 o q w w w w w w w w w w w w w w w w q o 2 2 2 2 2 2 2 2 2 2 2 2 2 2 ",
"2 2 2 2 2 2 2 2 2 2 2 o $ v N V Z Z Z Z Z Z Z Z Z Z Z Z Z Z Z Z V N v $ o 2 2 2 2 2 2 2 2 2 2 2 ",
"2 2 2 2 2 2 2 2 2 X $ N Z Z Z Z Z Z Z Z Z Z Z Z Z Z Z Z Z Z Z Z Z Z Z Z < $ X 2 2 2 2 2 2 2 2 2 ",
"2 2 2 2 2 2 2 2 + : Z Z Z Z Z Z Z Z Z Z Z Z Z Z Z Z Z Z Z Z Z Z Z Z Z Z Z 1 : + 2 2 2 2 2 2 2 2 ",
"2 2 2 2 2 2 2 + , Z Z Z Z Z Z Z V V V V V V V V V V V V V V V V Z Z Z Z Z Z Z , + 2 2 2 2 2 2 2 ",
"2 2 2 2 2 2 X : Z Z Z Z 1 < = w + o o o o o o o o o o o o o o + w = < Z Z Z Z Z v X 2 2 2 2 2 2 ",
"2 2 2 2 2 2 & Z Z Z Z Z j o 2 2 2 2 2 2 2 2 2 2 2 2 2 2 2 2 2 2 2 2 o k Z Z Z Z Z & 2 2 2 2 2 2 ",
"2 2 2 2 2 + N Z Z Z Z % 2 2 2 2 2 2 2 2 2 2 2 2 2 2 2 2 2 2 2 2 2 2 2 2 % Z Z Z Z N + 2 2 2 2 2 ",
"2 2 2 2 2 * Z Z Z Z - 2 2 2 2 2 2 2 2 2 2 2 2 2 2 2 2 2 2 2 2 2 2 2 2 2 2 l Z Z Z Z & 2 2 2 2 2 ",
"2 2 2 2 X , Z Z Z N + 2 2 2 2 2 2 2 2 2 2 2 2 2 2 2 2 2 2 2 2 2 2 2 2 2 2 + N Z Z Z , X 2 2 2 2 ",
"2 2 2 2 + V Z Z Z - 2 2 2 2 2 2 2 2 2 2 2 2 2 2 2 2 2 2 2 2 2 2 2 2 2 2 2 2 - Z Z Z Z 0 2 2 2 2 ",
"2 2 2 2 t Z Z Z Z # 2 2 2 2 2 2 2 2 2 2 2 2 2 2 2 2 2 2 2 2 2 2 2 2 2 2 2 2 # Z Z Z Z t 2 2 2 2 ",
"2 2 2 2 u Z Z Z Z t 2 2 2 2 2 2 2 2 2 2 2 2 2 2 2 2 2 2 2 2 2 2 2 2 2 2 2 2 t Z Z Z Z u 2 2 2 2 ",
"2 2 2 2 u Z Z Z Z t 2 2 2 2 2 2 2 2 2 2 2 2 2 2 2 2 2 2 2 2 2 2 2 2 2 2 2 2 t Z Z Z Z u 2 2 2 2 ",
"2 2 2 2 w Z Z Z Z # 2 2 2 2 2 2 2 2 2 2 2 2 2 2 2 2 2 2 2 2 2 2 2 2 2 2 2 2 # Z Z Z Z t 2 2 2 2 ",
"2 2 2 2 + V Z Z Z ;   2 2 2 2 2 2 2 2 2 2 2 2 2 2 2 2 2 2 2 2 2 2 2 2 2 2 2 - Z Z Z 1 0 2 2 2 2 ",
"2 2 2 2 X , Z Z Z N + 2 2 2 2 2 2 2 2 2 2 2 2 2 2 2 2 2 2 2 2 2 2 2 2 2 2 + N Z Z Z , X 2 2 2 2 ",
"2 2 2 2 2 & Z Z Z Z - 2 2 2 2 2 2 2 2 2 2 2 2 2 2 2 2 2 2 2 2 2 2 2 2 2 2 - Z Z Z Z & 2 2 2 2 2 ",
"2 2 2 2 2 + V Z Z Z 1 % 2 2 2 2 2 2 2 2 2 2 2 2 2 2 2 2 2 2 2 2 2 2 2 X % Z Z Z Z N + 2 2 2 2 2 ",
"2 2 2 2 2 2 & Z Z Z Z Z k o 2 2 2 2 2 2 2 2 2 2 2 2 2 2 2 2 2 2 2 2 o k Z Z Z Z Z & 2 2 2 2 2 2 ",
"2 2 2 2 2 2 X : Z Z Z Z Z < = @ + o o o o o o o o o o o o o o + w = < Z Z Z Z Z v X 2 2 2 2 2 2 ",
"2 2 2 2 2 2 2 + , Z Z Z Z Z Z Z V V V V V V V V V V V V V V V V Z 1 Z Z Z Z Z , + 2 2 2 2 2 2 2 ",
"2 2 2 2 2 2 2 2 + : 1 Z Z Z Z Z Z Z Z Z Z Z Z Z Z Z Z Z Z Z Z Z Z Z Z Z Z Z : o 2 2 2 2 2 2 2 2 ",
"2 2 2 2 2 2 2 2 2 X $ < Z Z Z Z Z Z Z Z Z Z Z Z Z Z Z Z Z Z Z Z Z Z Z Z < % X 2 2 2 2 2 2 2 2 2 ",
"2 2 2 2 2 2 2 2 2 2 2 O $ v N Z Z Z Z Z Z Z Z Z Z Z Z Z Z Z Z Z Z N v $ o 2 2 2 2 2 2 2 2 2 2 2 ",
"2 2 2 2 2 2 2 2 2 2 2   2 2 o q w w w w w w w w w w w w w w w w q o 2 2 2 2 2 2 2 2 2 2 2 2 2 2 ",
"2 2 2 2 2 2 2 2 2 2 2 2 2 2 2 2 2 2 2 2 2 2 2 2 2 2 2 2 2 2 2 2 2 2 2 2 2 2 2 2 2 2 2 2 2 2 2 2 ",
"2 2 2 2 2 2 2 2 2 2 2 2 2 2 2 2 2 2 2 2 2 2 2 2 2 2 2 2 2 2 2 2 2 2 2 2 2 2 2 2 2 2 2 2 2 2 2 2 ",
"2 2 2 2 2 2 2 2 2 2 2 2 2 2 2 2 2 2 2 2 2 2 2 2 2 2 2 2 2 2 2 2 2 2 2 2 2 2 2 2 2 2 2 2 2 2 2 2 ",
"2 2 2 2 2 2 2 2 2 2 2 2 2 2 2 2 2 2 2 2 2 2 2 2 2 2 2 2 2 2 2 2 2 2 2 2 2 2 2 2 2 2 2 2 2 2 2 2 ",
"2 2 2 2 2 2 2 2 2 2 2 2 2 2 2 2 2 2 2 2 2 2 2 2 2 2 2 2 2 2 2 2 2 2 2 2 2 2 2 2 2 2 2 2 2 2 2 2 ",
"2 2 2 2 2 2 2 2 2 2 2 2 2 2 2 2 2 2 2 2 2 2 2 2 2 2 2 2 2 2 2 2 2 2 2 2 2 2 2 2 2 2 2 2 2 2 2 2 ",
"2 2 2 2 2 2 2 2 2 2 2 2 2 2 2 2 2 2 2 2 2 2 2 2 2 2 2 2 2 2 2 2 2 2 2 2 2 2 2 2 2 2 2 2 2 2 2 2 ",
"2 2 2 2 2 2 2 2 2 2 2 2 2 2 2 2 2 2 2 2 2 2 2 2 2 2 2 2 2 2 2 2 2 2 2 2 2 2 2 2 2 2 2 2 2 2 2 2 ",
"2 2 2 2 2 2 2 2 2 2 2 2 2 2 2 2 2 2 2 2 2 2 2 2 2 2 2 2 2 2 2 2 2 2 2 2 2 2 2 2 2 2 2 2 2 2 2 2 ",
"2 2 2 2 2 2 2 2 2 2 2 2 2 2 2 2 2 2 2 2 2 2 2 2 2 2 2 2 2 2 2 2 2 2 2 2 2 2 2 2 2 2 2 2 2 2 2 2 ",
"2 2 2 2 2 2 2 2 2 2 2 2 2 2 2 2 2 2 2 2 2 2 2 2 2 2 2 2 2 2 2 2 2 2 2 2 2 2 2 2 2 2 2 2 2 2 2 2 "
};
